<svg xmlns="http://www.w3.org/2000/svg" viewBox="0 0 1000 1000"><path fill="#24283b" d="M0 0h1000v1000H0Z"/><path fill="#d2a6ef" fill-rule="evenodd" d="M53 128c0 20 16 36 36 36h73a36 36 0 1 0 0-72H89c-20 0-36 16-36 36Z"/><path fill="#57f9ff" fill-rule="evenodd" d="M469 128c0 20 16 36 36 36h49a36 36 0 1 0 0-72h-49c-20 0-36 16-36 36Z"/><path fill="#fcf9c3" fill-rule="evenodd" d="M726 380c0 20 16 36 36 36h108a36 36 0 1 0 0-72H762c-20 0-36 16-36 36Z"/><path fill="#d2a6ef" fill-rule="evenodd" d="M69 500c0 20 16 36 36 36h97a36 36 0 1 0 0-72h-97c-20 0-36 16-36 36Z"/><path fill="#ffd9af" fill-rule="evenodd" d="M126 254c0 20 16 36 36 36h87a36 36 0 1 0 0-72h-87c-20 0-36 16-36 36Z"/><path fill="#82aaff" fill-rule="evenodd" d="M233 128c0 20 16 36 36 36h128a36 36 0 1 0 0-72H269c-20 0-36 16-36 36Z"/><path fill="#58ffc7" fill-rule="evenodd" d="M625 128c0 20 16 36 36 36h213a36 36 0 1 0 0-72H661c-20 0-36 16-36 36Z"/><path fill="#c5cee0" fill-rule="evenodd" d="M320 254c0 20 16 36 36 36h270a36 36 0 1 0 0-72H356c-20 0-36 16-36 36Z"/><path fill="#f7768e" fill-rule="evenodd" d="M233 380c0 20 16 36 36 36h172a36 36 0 0 0 0-72H269c-20 0-36 16-36 36Z"/><path fill="#58ffc7" fill-rule="evenodd" d="M273 500c0 20 16 36 36 36h252a36 36 0 1 0 0-72H309c-20 0-36 16-36 36Z"/><path fill="#c5cee0" fill-rule="evenodd" d="M176 619c0 20 16 36 36 36h110a36 36 0 1 0 0-72H212c-20 0-36 16-36 36Z"/><path fill="#ffd9af" fill-rule="evenodd" d="M393 619c0 20 16 36 36 36h279a36 36 0 1 0 0-72H429c-20 0-36 16-36 36Z"/><path fill="#82aaff" fill-rule="evenodd" d="M512 380c0 20 16 36 36 36h107a36 36 0 1 0 0-72H548c-20 0-36 16-36 36Z"/><path fill="#f7768e" fill-rule="evenodd" d="M654 745c0 20 16 36 36 36h108a36 36 0 1 0 0-72H690c-20 0-36 16-36 36Z"/><path fill="#d2a6ef" fill-rule="evenodd" d="M53 869c0 20 16 36 36 36h97a36 36 0 1 0 0-72H89c-20 0-36 16-36 36Z"/><path fill="#fcf9c3" fill-rule="evenodd" d="M176 745c0 20 16 36 36 36h172a36 36 0 0 0 0-72H212c-20 0-36 16-36 36Z"/><path fill="#82aaff" fill-rule="evenodd" d="M257 869c0 20 16 36 36 36h252a36 36 0 1 0 0-72H293c-20 0-36 16-36 36Z"/><path fill="#57f9ff" fill-rule="evenodd" d="M448 745c0 20 16 36 36 36h107a36 36 0 1 0 0-72H484c-20 0-36 16-36 36Z"/></svg>
